HIERARCHY
ROOT Hips
{
	OFFSET 0.000000 0.000000 0.000000
	CHANNELS 6 Xposition Yposition Zposition Xrotation Yrotation Zrotation
	JOINT LeftUpLeg_virtual
	{
		OFFSET 0.000000 0.000000 0.000000
		CHANNELS 3 Xrotation Yrotation Zrotation
		JOINT LeftUpLeg
		{
			OFFSET 13.026900 -6.336304 -1.092800
			CHANNELS 3 Xrotation Yrotation Zrotation
			JOINT LeftLeg
			{
				OFFSET 0.524474 -46.096886 9.782700
				CHANNELS 3 Xrotation Yrotation Zrotation
				JOINT LeftFoot
				{
					OFFSET -0.524474 -53.427422 -12.948200
					CHANNELS 3 Xrotation Yrotation Zrotation
					JOINT LeftToeBase
					{
						OFFSET 0.192200 -14.009700 16.364100
						CHANNELS 3 Xrotation Yrotation Zrotation
						JOINT LeftToe_End
						{
							OFFSET -1.784700 -0.561700 9.474800
							CHANNELS 3 Xrotation Yrotation Zrotation
							End Site
							{
								OFFSET 0 0 0
							}
						}
					}
				}
			}
		}
	}
	JOINT RightUpLeg_virtual
	{
		OFFSET 0.000000 0.000000 0.000000
		CHANNELS 3 Xrotation Yrotation Zrotation
		JOINT RightUpLeg
		{
			OFFSET -12.883000 -6.336304 -1.092800
			CHANNELS 3 Xrotation Yrotation Zrotation
			JOINT RightLeg
			{
				OFFSET -0.524587 -46.096825 9.782800
				CHANNELS 3 Xrotation Yrotation Zrotation
				JOINT RightFoot
				{
					OFFSET 0.524587 -53.427383 -12.948300
					CHANNELS 3 Xrotation Yrotation Zrotation
					JOINT RightToeBase
					{
						OFFSET -0.192200 -14.009700 16.364100
						CHANNELS 3 Xrotation Yrotation Zrotation
						JOINT RightToe_End
						{
							OFFSET 1.784700 -0.561700 9.474800
							CHANNELS 3 Xrotation Yrotation Zrotation
							End Site
							{
								OFFSET 0 0 0
							}
						}
					}
				}
			}
		}
	}
	JOINT Spine_virtual
	{
		OFFSET 0.000000 0.000000 0.000000
		CHANNELS 3 Xrotation Yrotation Zrotation
		JOINT Spine
		{
			OFFSET 0.072000 7.257294 -0.789700
			CHANNELS 3 Xrotation Yrotation Zrotation
			JOINT Spine1
			{
				OFFSET 0.000000 12.508769 -0.658067
				CHANNELS 3 Xrotation Yrotation Zrotation
				JOINT Spine1_split
				{
					OFFSET 0.000000 12.508769 -0.658067
					CHANNELS 3 Xrotation Yrotation Zrotation
					JOINT Spine2
					{
						OFFSET 0.000000 12.508769 -0.658067
						CHANNELS 3 Xrotation Yrotation Zrotation
						JOINT Neck_virtual
						{
							OFFSET 0.000000 0.000000 0.000000
							CHANNELS 3 Xrotation Yrotation Zrotation
							JOINT Neck
							{
								OFFSET 0.000000 14.033295 7.520400
								CHANNELS 3 Xrotation Yrotation Zrotation
								JOINT Head
								{
									OFFSET 0.000000 8.198502 5.703100
									CHANNELS 3 Xrotation Yrotation Zrotation
									JOINT HeadTop_End
									{
										OFFSET 0.000000 17.760803 13.332701
										CHANNELS 3 Xrotation Yrotation Zrotation
										End Site
										{
											OFFSET 0 0 0
										}
									}
								}
							}
						}
						JOINT LeftShoulder_virtual
						{
							OFFSET 0.000000 0.000000 0.000000
							CHANNELS 3 Xrotation Yrotation Zrotation
							JOINT LeftShoulder
							{
								OFFSET 6.292450 5.785301 -0.669000
								CHANNELS 3 Xrotation Yrotation Zrotation
								JOINT LeftShoulder_split
								{
									OFFSET 6.292450 5.785301 -0.669000
									CHANNELS 3 Xrotation Yrotation Zrotation
									JOINT LeftArm
									{
										OFFSET 13.907140 -6.093903 1.965100
										CHANNELS 3 Xrotation Yrotation Zrotation
										JOINT LeftForeArm
										{
											OFFSET 34.140198 0.000000 0.000000
											CHANNELS 3 Xrotation Yrotation Zrotation
											JOINT LeftHand
											{
												OFFSET 40.960209 0.000000 0.000000
												CHANNELS 3 Xrotation Yrotation Zrotation
												End Site
												{
													OFFSET 0 0 0
												}
											}
										}
									}
								}
							}
						}
						JOINT RightShoulder_virtual
						{
							OFFSET 0.000000 0.000000 0.000000
							CHANNELS 3 Xrotation Yrotation Zrotation
							JOINT RightShoulder
							{
								OFFSET -6.292450 5.785301 -0.669000
								CHANNELS 3 Xrotation Yrotation Zrotation
								JOINT RightShoulder_split
								{
									OFFSET -6.292450 5.785301 -0.669000
									CHANNELS 3 Xrotation Yrotation Zrotation
									JOINT RightArm
									{
										OFFSET -13.907140 -6.093903 1.965100
										CHANNELS 3 Xrotation Yrotation Zrotation
										JOINT RightForeArm
										{
											OFFSET -34.140198 0.000000 0.000000
											CHANNELS 3 Xrotation Yrotation Zrotation
											JOINT RightHand
											{
												OFFSET -40.960209 0.000000 0.000000
												CHANNELS 3 Xrotation Yrotation Zrotation
												End Site
												{
													OFFSET 0 0 0
												}
											}
										}
									}
								}
							}
						}
					}
				}
			}
		}
	}
}
MOTION
Frames: 4
Frame Time: 0.03333333
2.198609 264.028870 -23.473284 0.000000 0.000000 0.000000 4.130270 -9.838143 2.779377 -77.831768 17.119775 22.354863 85.436473 -1.769409 4.296875 -11.789889 4.192359 -15.520514 -2.810085 -3.057527 7.402538 0.000000 0.000000 0.000000 6.356733 -13.674237 1.402156 -94.117787 6.131404 -8.037717 106.962190 -4.431491 -0.908970 7.167023 -14.518564 20.536548 3.079482 5.973459 5.632727 0.000000 0.000000 0.000000 8.082425 -14.122399 1.903031 6.005673 -1.634798 1.081785 9.979123 -1.399277 -0.644801 1.035047 -2.495484 1.587492 0.000000 0.000000 0.000000 12.769486 -1.424007 -0.164201 -21.988387 1.981936 -1.894505 -0.375039 -4.740497 1.091783 0.000000 0.000000 0.000000 12.722099 -1.492773 -1.174748 1.055853 -13.768991 26.776117 0.803560 9.522591 -6.991450 -57.948848 -21.799589 -10.572821 31.176122 -70.282797 56.316365 0.000000 0.000000 0.000000 12.492203 -1.093929 -0.417767 3.933798 9.338213 -7.454806 6.848748 11.178277 0.009801 -73.832214 35.681793 23.161035 -22.231868 74.997793 -19.082874 0.000000 0.000000 0.000000 
2.670393 265.314575 -24.366354 0.000000 0.000000 0.000000 2.618998 -10.801992 3.333004 -82.554584 13.730874 21.476476 86.406961 -2.829340 2.207003 -11.257874 6.233507 -14.315419 -1.531010 -3.978594 7.495879 0.000000 0.000000 0.000000 4.905609 -14.194095 2.426321 -97.139558 3.478955 -9.947464 100.885159 -2.429907 -1.686714 10.773497 -12.527212 22.137461 0.914534 4.838652 3.729624 0.000000 0.000000 0.000000 7.223444 -14.910704 1.861713 6.625129 -1.673548 1.032922 13.211924 -1.120707 -0.661723 1.360292 -2.237087 1.720365 0.000000 0.000000 0.000000 15.740839 -1.029844 -0.336722 -23.850964 3.002585 -1.836270 2.093126 -5.300847 2.807615 0.000000 0.000000 0.000000 15.618325 -1.156687 -1.497157 2.628395 -16.148302 29.613836 0.017322 6.267333 -6.194069 -57.494634 -18.756430 -7.349374 17.195717 -66.301480 47.520454 0.000000 0.000000 0.000000 15.407184 -0.655335 -0.605165 4.444496 9.788343 -9.929135 7.988810 11.199850 -1.025102 -82.472635 35.677828 27.465311 -39.243163 75.746238 -3.320013 0.000000 0.000000 0.000000 
2.743581 266.396576 -24.357248 0.000000 0.000000 0.000000 1.265873 -10.780926 3.915718 -84.812952 10.519766 19.404318 80.701779 -3.982040 1.004620 -9.499729 7.734537 -11.897253 0.346239 -4.536032 6.676247 0.000000 0.000000 0.000000 3.842556 -13.955267 3.424140 -97.190252 -0.149802 -11.717255 89.823551 -0.801277 -2.241720 14.378829 -8.996801 21.797874 -1.292143 4.502698 2.126456 0.000000 0.000000 0.000000 6.241999 -15.079263 1.777861 6.382994 -1.313379 1.069129 16.260676 -0.721392 -0.758801 1.440812 -2.542603 1.900282 0.000000 0.000000 0.000000 18.542907 -0.494655 -0.571229 -24.519005 3.966004 -1.898059 5.384160 -6.094996 4.793070 0.000000 0.000000 0.000000 18.396269 -0.746346 -1.733041 3.922192 -17.641597 31.419874 -1.348639 2.600641 -4.709637 -60.318958 -17.723555 -5.361821 7.197482 -61.268163 42.493650 0.000000 0.000000 0.000000 18.100090 -0.118661 -0.750767 5.300193 11.087765 -12.700061 8.928719 11.148019 -1.804491 -89.027793 36.835360 28.653193 -43.967430 70.955789 0.529340 0.000000 0.000000 0.000000 
2.408393 266.770477 -23.653128 0.000000 0.000000 0.000000 -0.171517 -9.732444 4.403760 -84.964323 8.073964 16.709484 69.533955 -5.356674 0.539636 -6.843542 8.669855 -8.814690 1.807981 -4.810676 5.037668 0.000000 0.000000 0.000000 2.487401 -13.954729 4.056814 -95.134426 -4.424445 -13.352613 74.635615 -0.087283 -2.086093 17.884123 -5.637415 19.034455 -3.358699 4.844495 1.303968 0.000000 0.000000 0.000000 4.956283 -14.769980 1.744570 5.738110 -0.801082 1.191664 18.892862 -0.308259 -0.872132 1.108582 -2.446846 1.708571 0.000000 0.000000 0.000000 20.833725 0.060432 -0.781532 -23.908387 4.914207 -2.149368 8.938118 -6.935122 6.690691 0.000000 0.000000 0.000000 20.805753 -0.310590 -1.840444 4.678346 -17.989241 32.317057 -2.497674 -0.756167 -2.957223 -64.961342 -18.373933 -3.800272 -1.314485 -55.108015 38.541166 0.000000 0.000000 0.000000 20.283997 0.361111 -0.801665 6.677295 12.742792 -16.086419 9.115591 10.515792 -2.126265 -91.110578 39.213472 25.559432 -41.454720 62.396981 -2.663651 0.000000 0.000000 0.000000 
